<svg version="1.1" id="Layer_1" xmlns="http://www.w3.org/2000/svg" xmlns:xlink="http://www.w3.org/1999/xlink" x="0px" y="0px"
	 width="100%" viewBox="0 0 512 512" enable-background="new 0 0 512 512" xml:space="preserve">
<path fill="#FFFFFF" opacity="1.000000" stroke="none" 
	d="
M277.000000,1.000000 
	C355.627808,1.000000 434.255615,1.000000 512.941711,1.000000 
	C512.941711,171.543503 512.941711,342.087036 512.941711,513.000000 
	C467.313110,513.000000 421.625214,513.000000 375.605225,512.615540 
	C394.944580,509.661835 410.233765,499.263977 420.695251,483.229797 
	C435.749084,460.156952 436.626434,435.577942 423.475922,410.996918 
	C413.708923,392.740417 397.987488,382.375641 377.814148,377.342163 
	C378.201141,374.569519 378.823151,371.711456 378.964874,368.829803 
	C379.710632,353.664978 380.346466,338.494659 380.998596,323.325317 
	C381.679291,307.490631 382.324310,291.654480 383.005035,275.819794 
	C383.657196,260.650452 384.343628,245.482559 384.999359,230.313354 
	C385.676697,214.645187 386.421021,198.979233 386.975464,183.306625 
	C387.438141,170.227966 387.565094,157.137299 388.041901,144.059296 
	C388.317596,136.496338 388.991516,128.947891 389.489014,121.350090 
	C400.425171,119.812668 409.512543,115.395111 413.682434,104.002007 
	C421.911011,104.002007 430.079803,103.762604 438.229828,104.051697 
	C455.364563,104.659500 467.889374,91.285934 466.203369,74.419716 
	C465.029602,62.677986 453.094177,51.677803 442.170380,51.957859 
	C434.177277,52.162785 426.171936,51.877747 418.177765,52.060520 
	C415.215118,52.128258 413.394928,51.386631 412.003418,48.554821 
	C407.390686,39.167900 399.626007,34.930374 389.201904,34.966713 
	C362.374390,35.060230 335.546356,34.997990 308.718506,34.997990 
	C304.597443,34.997990 300.476349,34.997990 295.720154,34.997990 
	C295.720154,30.473536 296.356293,26.241669 295.597076,22.277002 
	C293.576569,11.725537 286.818939,4.932169 277.000000,1.000000 
z"/>
<path fill="#FFFFFF" opacity="1.000000" stroke="none" 
	d="
M131.000000,513.000000 
	C87.689354,513.000000 44.378704,513.000000 1.034028,513.000000 
	C1.034028,342.445374 1.034028,171.890732 1.034028,1.000000 
	C65.353836,1.000000 129.708267,1.000000 194.415436,1.367079 
	C187.555222,1.948886 176.363312,13.009476 175.954407,21.663296 
	C175.748230,26.026556 175.084808,30.368208 174.598907,34.997990 
	C155.047256,34.997990 135.590866,34.967915 116.134613,35.006592 
	C97.333344,35.043968 84.160080,44.048088 76.728996,60.994968 
	C74.615555,65.814774 73.196381,68.560951 67.089081,69.830727 
	C53.527954,72.650238 46.498055,84.357811 47.917725,98.288353 
	C48.836567,107.304543 56.128353,118.495682 67.472504,119.986397 
	C72.273766,120.617325 77.102928,121.035942 81.715195,121.529221 
	C82.482857,134.018127 83.348846,146.334274 83.970200,158.662781 
	C84.750832,174.151382 85.325638,189.650360 85.999458,205.144409 
	C86.658821,220.305969 87.339447,235.466614 87.995209,250.628342 
	C88.672539,266.288788 89.320251,281.950562 90.001114,297.610870 
	C90.653061,312.606171 91.342354,327.599915 91.994324,342.595215 
	C92.675209,358.255524 93.314728,373.917633 94.002724,389.577606 
	C94.646904,404.240204 95.330650,418.901031 95.997437,433.562653 
	C96.663986,448.219147 96.959366,462.905273 98.123924,477.522095 
	C98.950394,487.895508 104.151680,496.671265 112.357025,502.855194 
	C117.945648,507.067047 124.743073,509.674927 131.000000,513.000000 
z"/>
<path fill="#010201" opacity="1.000000" stroke="none" 
	d="
M131.468658,513.000000 
	C124.743073,509.674927 117.945648,507.067047 112.357025,502.855194 
	C104.151680,496.671265 98.950394,487.895508 98.123924,477.522095 
	C96.959366,462.905273 96.663986,448.219147 95.997437,433.562653 
	C95.330650,418.901031 94.646904,404.240204 94.002724,389.577606 
	C93.314728,373.917633 92.675209,358.255524 91.994324,342.595215 
	C91.342354,327.599915 90.653061,312.606171 90.001114,297.610870 
	C89.320251,281.950562 88.672539,266.288788 87.995209,250.628342 
	C87.339447,235.466614 86.658821,220.305969 85.999458,205.144409 
	C85.325638,189.650360 84.750832,174.151382 83.970200,158.662781 
	C83.348846,146.334274 82.482857,134.018127 81.715195,121.529221 
	C77.102928,121.035942 72.273766,120.617325 67.472504,119.986397 
	C56.128353,118.495682 48.836567,107.304543 47.917725,98.288353 
	C46.498055,84.357811 53.527954,72.650238 67.089081,69.830727 
	C73.196381,68.560951 74.615555,65.814774 76.728996,60.994968 
	C84.160080,44.048088 97.333344,35.043968 116.134613,35.006592 
	C135.590866,34.967915 155.047256,34.997990 174.598907,34.997990 
	C175.084808,30.368208 175.748230,26.026556 175.954407,21.663296 
	C176.363312,13.009476 187.555222,1.948886 194.884094,1.367079 
	C222.020889,1.000000 249.041794,1.000000 276.531342,1.000000 
	C286.818939,4.932169 293.576569,11.725537 295.597076,22.277002 
	C296.356293,26.241669 295.720154,30.473536 295.720154,34.997990 
	C300.476349,34.997990 304.597443,34.997990 308.718506,34.997990 
	C335.546356,34.997990 362.374390,35.060230 389.201904,34.966713 
	C399.626007,34.930374 407.390686,39.167900 412.003418,48.554821 
	C413.394928,51.386631 415.215118,52.128258 418.177765,52.060520 
	C426.171936,51.877747 434.177277,52.162785 442.170380,51.957859 
	C453.094177,51.677803 465.029602,62.677986 466.203369,74.419716 
	C467.889374,91.285934 455.364563,104.659500 438.229828,104.051697 
	C430.079803,103.762604 421.911011,104.002007 413.682434,104.002007 
	C409.512543,115.395111 400.425171,119.812668 389.489014,121.350090 
	C388.991516,128.947891 388.317596,136.496338 388.041901,144.059296 
	C387.565094,157.137299 387.438141,170.227966 386.975464,183.306625 
	C386.421021,198.979233 385.676697,214.645187 384.999359,230.313354 
	C384.343628,245.482559 383.657196,260.650452 383.005035,275.819794 
	C382.324310,291.654480 381.679291,307.490631 380.998596,323.325317 
	C380.346466,338.494659 379.710632,353.664978 378.964874,368.829803 
	C378.823151,371.711456 378.201141,374.569519 377.814148,377.342163 
	C397.987488,382.375641 413.708923,392.740417 423.475922,410.996918 
	C436.626434,435.577942 435.749084,460.156952 420.695251,483.229797 
	C410.233765,499.263977 394.944580,509.661835 375.136536,512.615540 
	C293.979095,513.000000 212.958206,513.000000 131.468658,513.000000 
M261.899078,35.038586 
	C267.173126,35.038586 272.447174,35.038586 277.604889,35.038586 
	C279.574280,21.241899 276.730408,17.889805 263.819763,18.035870 
	C262.495819,18.050846 261.173798,18.233461 258.952087,18.138443 
	C240.297531,18.102905 221.642776,18.008169 202.988495,18.063992 
	C196.474808,18.083483 193.212082,21.455723 193.014389,27.896387 
	C192.944763,30.164467 193.003265,32.436481 193.003265,34.923290 
	C216.057022,34.923290 238.510437,34.923290 261.899078,35.038586 
M372.060608,394.990692 
	C366.472473,394.724274 360.685242,393.387817 355.331970,394.383759 
	C336.092316,397.963104 322.246155,408.866852 315.714386,427.573120 
	C309.016968,446.753815 312.474426,464.563660 326.331390,479.446381 
	C338.504242,492.520203 353.783020,498.218994 372.630249,494.882477 
	C402.485382,489.113861 419.234955,462.875183 413.023621,432.294281 
	C410.597076,420.347595 403.723816,411.008118 394.139709,403.877472 
	C387.911041,399.243317 381.115326,395.215271 372.060608,394.990692 
M381.894806,69.029625 
	C387.110840,69.029625 392.326874,69.029625 397.419830,69.029625 
	C399.076813,55.386459 396.118378,52.012913 383.313446,52.114338 
	C381.832794,52.126068 380.353363,52.296829 377.973450,52.193661 
	C377.308136,52.163418 376.642853,52.106712 375.977539,52.106678 
	C290.003235,52.102203 204.028946,52.092449 118.054680,52.143425 
	C115.250656,52.145088 112.341965,52.401566 109.662872,53.169788 
	C101.612015,55.478344 95.728455,60.298790 92.364723,69.149712 
	C95.165970,69.149712 97.113884,69.149712 99.061790,69.149712 
	C191.034286,69.149704 283.006775,69.151253 374.979279,69.139351 
	C376.972534,69.139099 378.965759,68.984642 381.894806,69.029625 
M379.913757,103.155113 
	C382.886047,103.164337 385.858337,103.173660 388.830627,103.182755 
	C393.687653,103.197609 396.742004,100.736519 397.448608,96.045982 
	C397.919342,92.921143 397.537964,89.667946 397.537964,86.500534 
	C391.630768,86.500534 386.211029,86.500534 379.901428,86.312065 
	C379.235840,86.287498 378.570251,86.241440 377.904663,86.241417 
	C277.611267,86.237907 177.317856,86.237320 77.024445,86.242188 
	C75.860054,86.242241 74.681145,86.210777 73.533752,86.371063 
	C68.260437,87.107697 64.905632,90.634239 65.083359,95.168411 
	C65.266380,99.837189 68.734322,102.948616 74.139931,103.255432 
	C75.302742,103.321434 76.471718,103.285347 77.637856,103.285362 
	C176.265259,103.286423 274.892670,103.287987 373.520081,103.274391 
	C375.344971,103.274139 377.169861,103.092766 379.913757,103.155113 
M344.759369,379.043976 
	C348.846588,378.368164 352.912994,377.422638 357.027863,377.105408 
	C360.092194,376.869141 360.896698,375.578339 361.013367,372.734558 
	C361.899414,351.140442 362.927521,329.552155 363.887329,307.960999 
	C364.891479,285.372192 365.922363,262.784393 366.844330,240.192169 
	C367.976807,212.442032 368.961823,184.685883 370.108124,156.936371 
	C370.533264,146.644775 371.302521,136.367584 371.758820,126.076920 
	C371.863831,123.709679 373.197205,120.212387 368.693665,120.229584 
	C364.049927,120.247307 359.407074,120.509224 353.894714,120.420464 
	C352.896362,120.384041 351.897980,120.315796 350.899628,120.315735 
	C269.071106,120.310623 187.242569,120.310799 105.414040,120.310989 
	C104.747429,120.310989 104.077370,120.361870 103.414803,120.311562 
	C100.568787,120.095497 99.624100,121.413452 99.794106,124.196236 
	C100.220535,131.176651 100.458076,138.168716 100.761948,145.156525 
	C102.447838,183.924530 104.128647,222.692749 105.815689,261.460724 
	C107.133453,291.742920 108.462845,322.024597 109.777931,352.306915 
	C111.476021,391.408386 113.193871,430.509064 114.843956,469.612579 
	C115.520004,485.633423 125.943047,495.930420 142.031631,495.945618 
	C199.361557,495.999878 256.691559,495.969727 314.021515,495.952789 
	C315.185699,495.952423 316.349823,495.724243 318.183624,495.532227 
	C306.294647,484.160004 298.757111,471.244659 296.482117,455.685547 
	C292.955627,431.566925 299.719330,410.584442 318.118713,394.537720 
	C325.593811,388.018463 335.261261,384.012970 344.759369,379.043976 
M414.934265,81.394196 
	C415.028351,82.838028 415.122437,84.281860 415.236786,86.036690 
	C424.273315,86.036690 433.024078,86.281288 441.751251,85.933617 
	C446.121979,85.759491 448.583344,82.530525 448.849976,78.294548 
	C449.118835,74.023262 446.941010,70.224373 442.682953,69.958076 
	C433.555054,69.387215 424.366699,69.783081 414.934113,69.783081 
	C414.934113,73.477409 414.934113,76.949883 414.934265,81.394196 
z"/>
<path fill="#4CAF50" opacity="1.000000" stroke="none" 
	d="
M343.931152,378.863647 
	C335.261261,384.012970 325.593811,388.018463 318.118713,394.537720 
	C299.719330,410.584442 292.955627,431.566925 296.482117,455.685547 
	C298.757111,471.244659 306.294647,484.160004 318.183624,495.532227 
	C316.349823,495.724243 315.185699,495.952423 314.021515,495.952789 
	C256.691559,495.969727 199.361557,495.999878 142.031631,495.945618 
	C125.943047,495.930420 115.520004,485.633423 114.843956,469.612579 
	C113.193871,430.509064 111.476021,391.408386 109.777931,352.306915 
	C108.462845,322.024597 107.133453,291.742920 105.815689,261.460724 
	C104.128647,222.692749 102.447838,183.924530 100.761948,145.156525 
	C100.458076,138.168716 100.220535,131.176651 99.794106,124.196236 
	C99.624100,121.413452 100.568787,120.095497 103.414803,120.311562 
	C104.077370,120.361870 104.747429,120.310989 105.414040,120.310989 
	C187.242569,120.310799 269.071106,120.310623 350.899628,120.315735 
	C351.897980,120.315796 352.896362,120.384041 354.393066,120.920204 
	C354.275635,131.831482 353.576202,142.238922 353.063934,152.655533 
	C352.322784,167.725220 351.710693,182.801270 351.055298,197.875122 
	C350.378265,213.447479 349.714447,229.020432 349.046387,244.593185 
	C348.378326,260.165985 347.715240,275.738953 347.044495,291.311646 
	C346.380920,306.718140 345.622742,322.121246 345.069122,337.531677 
	C344.574310,351.304840 344.301788,365.085999 343.931152,378.863647 
M275.617889,196.569458 
	C289.487091,192.180542 296.466400,181.888290 295.016632,167.962448 
	C293.826019,156.525620 283.603607,146.483887 271.252350,146.246841 
	C247.452286,145.790146 223.627930,145.728500 199.831665,146.280487 
	C186.298676,146.594391 175.975723,158.382660 176.001770,171.697281 
	C176.027267,184.732651 186.292526,196.706894 198.876999,196.885559 
	C224.174423,197.244690 249.482162,196.876190 275.617889,196.569458 
z"/>
<path fill="#8BC34A" opacity="1.000000" stroke="none" 
	d="
M378.994751,102.995911 
	C377.169861,103.092766 375.344971,103.274139 373.520081,103.274391 
	C274.892670,103.287987 176.265259,103.286423 77.637856,103.285362 
	C76.471718,103.285347 75.302742,103.321434 74.139931,103.255432 
	C68.734322,102.948616 65.266380,99.837189 65.083359,95.168411 
	C64.905632,90.634239 68.260437,87.107697 73.533752,86.371063 
	C74.681145,86.210777 75.860054,86.242241 77.024445,86.242188 
	C177.317856,86.237320 277.611267,86.237907 377.904663,86.241417 
	C378.570251,86.241440 379.235840,86.287498 380.389771,86.826111 
	C380.250305,92.558731 379.622528,97.777321 378.994751,102.995911 
z"/>
<path fill="#4CAF50" opacity="1.000000" stroke="none" 
	d="
M380.958984,68.902115 
	C378.965759,68.984642 376.972534,69.139099 374.979279,69.139351 
	C283.006775,69.151253 191.034286,69.149704 99.061790,69.149712 
	C97.113884,69.149712 95.165970,69.149712 92.364723,69.149712 
	C95.728455,60.298790 101.612015,55.478344 109.662872,53.169788 
	C112.341965,52.401566 115.250656,52.145088 118.054680,52.143425 
	C204.028946,52.092449 290.003235,52.102203 375.977539,52.106678 
	C376.642853,52.106712 377.308136,52.163418 378.465027,52.670731 
	C379.624084,58.399235 380.291534,63.650677 380.958984,68.902115 
z"/>
<path fill="#2D7A31" opacity="1.000000" stroke="none" 
	d="
M344.345276,378.953796 
	C344.301788,365.085999 344.574310,351.304840 345.069122,337.531677 
	C345.622742,322.121246 346.380920,306.718140 347.044495,291.311646 
	C347.715240,275.738953 348.378326,260.165985 349.046387,244.593185 
	C349.714447,229.020432 350.378265,213.447479 351.055298,197.875122 
	C351.710693,182.801270 352.322784,167.725220 353.063934,152.655533 
	C353.576202,142.238922 354.275635,131.831482 354.827637,121.042130 
	C359.407074,120.509224 364.049927,120.247307 368.693665,120.229584 
	C373.197205,120.212387 371.863831,123.709679 371.758820,126.076920 
	C371.302521,136.367584 370.533264,146.644775 370.108124,156.936371 
	C368.961823,184.685883 367.976807,212.442032 366.844330,240.192169 
	C365.922363,262.784393 364.891479,285.372192 363.887329,307.960999 
	C362.927521,329.552155 361.899414,351.140442 361.013367,372.734558 
	C360.896698,375.578339 360.092194,376.869141 357.027863,377.105408 
	C352.912994,377.422638 348.846588,378.368164 344.345276,378.953796 
z"/>
<path fill="#5F7B89" opacity="1.000000" stroke="none" 
	d="
M371.834229,494.686462 
	C353.783020,498.218994 338.504242,492.520203 326.331390,479.446381 
	C312.474426,464.563660 309.016968,446.753815 315.714386,427.573120 
	C322.246155,408.866852 336.092316,397.963104 355.331970,394.383759 
	C360.685242,393.387817 366.472473,394.724274 372.522461,395.456726 
	C381.975616,403.667053 390.058929,412.119751 393.825806,423.738739 
	C394.289062,425.167603 393.725250,426.929413 393.436676,428.249451 
	C384.066101,412.978760 367.695892,407.095276 351.499115,412.961670 
	C335.973755,418.584839 326.393372,436.605011 330.472534,452.511475 
	C334.924255,469.870758 351.344055,480.991638 368.308105,478.412903 
	C380.677063,476.532684 389.050232,469.467743 394.983276,459.318481 
	C392.545898,465.775818 390.977142,472.424316 387.386414,477.695404 
	C383.108002,483.976044 377.095459,489.075348 371.834229,494.686462 
z"/>
<path fill="#384850" opacity="1.000000" stroke="none" 
	d="
M372.232239,494.784454 
	C377.095459,489.075348 383.108002,483.976044 387.386414,477.695404 
	C390.977142,472.424316 392.545898,465.775818 394.995972,459.352844 
	C394.982056,458.968567 394.915283,458.997162 395.111023,458.944885 
	C395.398865,458.796082 395.582092,458.630707 395.569122,458.613495 
	C395.420898,458.417145 395.242737,458.243439 395.079193,457.664307 
	C398.003723,449.127380 397.266144,440.855103 395.916870,432.237427 
	C395.545959,431.592285 395.254547,431.272980 394.774231,430.744507 
	C394.269348,429.869232 393.953369,429.203064 393.637390,428.536926 
	C393.725250,426.929413 394.289062,425.167603 393.825806,423.738739 
	C390.058929,412.119751 381.975616,403.667053 372.910797,395.603851 
	C381.115326,395.215271 387.911041,399.243317 394.139709,403.877472 
	C403.723816,411.008118 410.597076,420.347595 413.023621,432.294281 
	C419.234955,462.875183 402.485382,489.113861 372.232239,494.784454 
z"/>
<path fill="#8AC24A" opacity="1.000000" stroke="none" 
	d="
M260.963837,34.923290 
	C238.510437,34.923290 216.057022,34.923290 193.003265,34.923290 
	C193.003265,32.436481 192.944763,30.164467 193.014389,27.896387 
	C193.212082,21.455723 196.474808,18.083483 202.988495,18.063992 
	C221.642776,18.008169 240.297531,18.102905 259.425537,18.642105 
	C260.253906,24.404943 260.608856,29.664118 260.963837,34.923290 
z"/>
<path fill="#5E7A88" opacity="1.000000" stroke="none" 
	d="
M414.934204,80.908272 
	C414.934113,76.949883 414.934113,73.477409 414.934113,69.783081 
	C424.366699,69.783081 433.555054,69.387215 442.682953,69.958076 
	C446.941010,70.224373 449.118835,74.023262 448.849976,78.294548 
	C448.583344,82.530525 446.121979,85.759491 441.751251,85.933617 
	C433.024078,86.281288 424.273315,86.036690 415.236786,86.036690 
	C415.122437,84.281860 415.028351,82.838028 414.934204,80.908272 
z"/>
<path fill="#57832F" opacity="1.000000" stroke="none" 
	d="
M379.454254,103.075508 
	C379.622528,97.777321 380.250305,92.558731 380.834717,86.920341 
	C386.211029,86.500534 391.630768,86.500534 397.537964,86.500534 
	C397.537964,89.667946 397.919342,92.921143 397.448608,96.045982 
	C396.742004,100.736519 393.687653,103.197609 388.830627,103.182755 
	C385.858337,103.173660 382.886047,103.164337 379.454254,103.075508 
z"/>
<path fill="#358439" opacity="1.000000" stroke="none" 
	d="
M381.426880,68.965866 
	C380.291534,63.650677 379.624084,58.399235 378.915009,52.770828 
	C380.353363,52.296829 381.832794,52.126068 383.313446,52.114338 
	C396.118378,52.012913 399.076813,55.386459 397.419830,69.029625 
	C392.326874,69.029625 387.110840,69.029625 381.426880,68.965866 
z"/>
<path fill="#558B30" opacity="1.000000" stroke="none" 
	d="
M261.431458,34.980938 
	C260.608856,29.664118 260.253906,24.404943 259.874908,18.742027 
	C261.173798,18.233461 262.495819,18.050846 263.819763,18.035870 
	C276.730408,17.889805 279.574280,21.241899 277.604889,35.038586 
	C272.447174,35.038586 267.173126,35.038586 261.431458,34.980938 
z"/>
<path fill="#000201" opacity="1.000000" stroke="none" 
	d="
M275.201782,196.688690 
	C249.482162,196.876190 224.174423,197.244690 198.876999,196.885559 
	C186.292526,196.706894 176.027267,184.732651 176.001770,171.697281 
	C175.975723,158.382660 186.298676,146.594391 199.831665,146.280487 
	C223.627930,145.728500 247.452286,145.790146 271.252350,146.246841 
	C283.603607,146.483887 293.826019,156.525620 295.016632,167.962448 
	C296.466400,181.888290 289.487091,192.180542 275.201782,196.688690 
M267.260071,180.093872 
	C274.585327,179.890289 277.966980,177.335861 278.104523,171.902267 
	C278.234650,166.761383 274.669312,163.140045 268.746826,163.109634 
	C246.759995,162.996704 224.770706,162.945328 202.786758,163.221756 
	C200.135101,163.255096 196.642822,164.777390 195.121384,166.799377 
	C193.650848,168.753677 193.391571,172.475235 194.091019,175.008972 
	C195.182449,178.962585 198.812302,180.127304 202.850021,180.116531 
	C224.004456,180.060028 245.159103,180.092560 267.260071,180.093872 
z"/>
<path fill="#020202" opacity="1.000000" stroke="none" 
	d="
M393.436707,428.249451 
	C393.953369,429.203064 394.269348,429.869232 394.865967,431.063660 
	C395.429871,431.915680 395.713135,432.239441 395.996399,432.563202 
	C397.266144,440.855103 398.003723,449.127380 395.021271,457.894501 
	C394.956726,458.524078 394.915283,458.997162 394.915283,458.997162 
	C394.915283,458.997162 394.982056,458.968567 394.969360,458.934204 
	C389.050232,469.467743 380.677063,476.532684 368.308105,478.412903 
	C351.344055,480.991638 334.924255,469.870758 330.472534,452.511475 
	C326.393372,436.605011 335.973755,418.584839 351.499115,412.961670 
	C367.695892,407.095276 384.066101,412.978760 393.436707,428.249451 
M346.928192,441.942444 
	C346.861847,442.936279 346.715271,443.932312 346.741943,444.923645 
	C346.934814,452.084991 350.303131,457.260681 356.783600,460.226898 
	C363.136230,463.134674 369.210175,462.137207 374.484741,457.756561 
	C379.948212,453.219116 381.779694,447.242004 380.039185,440.295349 
	C378.262054,433.202637 371.867188,428.106659 364.488251,427.826691 
	C355.990204,427.504211 350.121857,431.961670 346.928192,441.942444 
z"/>
<path fill="#5F7B89" opacity="1.000000" stroke="none" 
	d="
M395.916870,432.237427 
	C395.713135,432.239441 395.429871,431.915680 395.054901,431.272797 
	C395.254547,431.272980 395.545959,431.592285 395.916870,432.237427 
z"/>
<path fill="#5F7B89" opacity="1.000000" stroke="none" 
	d="
M395.111023,458.944885 
	C394.915283,458.997162 394.956726,458.524078 395.014648,458.293884 
	C395.242737,458.243439 395.420898,458.417145 395.569122,458.613495 
	C395.582092,458.630707 395.398865,458.796082 395.111023,458.944885 
z"/>
<path fill="#009486" opacity="1.000000" stroke="none" 
	d="
M266.786865,180.093994 
	C245.159103,180.092560 224.004456,180.060028 202.850021,180.116531 
	C198.812302,180.127304 195.182449,178.962585 194.091019,175.008972 
	C193.391571,172.475235 193.650848,168.753677 195.121384,166.799377 
	C196.642822,164.777390 200.135101,163.255096 202.786758,163.221756 
	C224.770706,162.945328 246.759995,162.996704 268.746826,163.109634 
	C274.669312,163.140045 278.234650,166.761383 278.104523,171.902267 
	C277.966980,177.335861 274.585327,179.890289 266.786865,180.093994 
z"/>
<path fill="#F0F0F0" opacity="1.000000" stroke="none" 
	d="
M346.974304,441.518677 
	C350.121857,431.961670 355.990204,427.504211 364.488251,427.826691 
	C371.867188,428.106659 378.262054,433.202637 380.039185,440.295349 
	C381.779694,447.242004 379.948212,453.219116 374.484741,457.756561 
	C369.210175,462.137207 363.136230,463.134674 356.783600,460.226898 
	C350.303131,457.260681 346.934814,452.084991 346.741943,444.923645 
	C346.715271,443.932312 346.861847,442.936279 346.974304,441.518677 
z"/>
</svg>